<?xml version="1.0" encoding="UTF-8" standalone="no"?>
<svg xmlns="http://www.w3.org/2000/svg" version="1.2" baseProfile="tiny" viewBox="0.00 0.00 516.00 145.00">
<path fill="#2d5489" d="
  M 84.67 24.96
  L 58.12 25.00
  A 0.35 0.35 0.0 0 1 57.82 24.48
  L 70.80 1.33
  A 0.35 0.35 0.0 0 1 71.41 1.32
  L 84.97 24.44
  A 0.35 0.35 0.0 0 1 84.67 24.96
  Z"
/>
<path fill="#3f2e5b" d="
  M 516.00 29.85
  L 516.00 87.76
  L 503.85 87.72
  A 0.54 0.54 0.0 0 1 503.32 87.11
  Q 503.73 83.78 503.36 80.81
  Q 503.18 79.39 502.46 80.62
  Q 497.88 88.35 488.76 88.12
  C 479.11 87.89 472.34 80.58 470.96 71.37
  Q 470.10 65.70 470.98 60.23
  C 472.22 52.47 477.60 45.48 485.58 44.06
  Q 496.63 42.08 502.26 50.86
  Q 503.47 52.74 503.46 50.50
  L 503.44 30.25
  A 0.38 0.38 0.0 0 1 503.82 29.87
  L 516.00 29.85
  Z
  M 503.29 64.00
  A 8.99 8.99 0.0 0 0 494.30 55.01
  L 492.66 55.01
  A 8.99 8.99 0.0 0 0 483.67 64.00
  L 483.67 67.78
  A 8.99 8.99 0.0 0 0 492.66 76.77
  L 494.30 76.77
  A 8.99 8.99 0.0 0 0 503.29 67.78
  L 503.29 64.00
  Z"
/>
<path fill="#3f2e5b" d="
  M 77.01 111.27
  L 77.04 123.21
  A 0.31 0.31 0.0 0 1 76.73 123.52
  L 0.98 123.53
  A 0.31 0.31 0.0 0 1 0.71 123.07
  L 52.30 31.91
  A 0.31 0.31 0.0 0 1 52.57 31.75
  L 65.87 31.68
  A 0.31 0.31 0.0 0 1 66.14 32.15
  L 21.69 110.75
  A 0.31 0.31 0.0 0 0 21.96 111.22
  L 76.70 110.96
  A 0.31 0.31 0.0 0 1 77.01 111.27
  Z"
/>
<path fill="#69c1d5" d="
  M 125.43 110.93
  L 78.51 32.18
  A 0.32 0.32 0.0 0 1 78.79 31.70
  L 91.93 31.83
  A 0.32 0.32 0.0 0 1 92.20 31.98
  L 146.20 122.83
  A 0.32 0.32 0.0 0 1 145.93 123.31
  L 99.60 123.34
  A 0.32 0.32 0.0 0 1 99.28 123.02
  L 99.26 111.56
  A 0.32 0.32 0.0 0 1 99.58 111.24
  L 125.15 111.42
  A 0.32 0.32 0.0 0 0 125.43 110.93
  Z"
/>
<rect fill="#3f2e5b" x="156.98" y="32.58" width="12.92" height="55.12" rx="0.36"/>
<path fill="#3f2e5b" d="
  M 345.72 77.43
  A 0.67 0.66 -9.1 0 0 346.35 77.88
  L 362.96 77.88
  Q 363.53 77.88 363.53 78.46
  L 363.55 87.20
  A 0.50 0.50 0.0 0 1 363.05 87.70
  L 333.22 87.71
  Q 332.73 87.71 332.73 87.22
  L 332.73 33.30
  Q 332.73 32.59 333.45 32.59
  L 344.98 32.59
  Q 345.63 32.59 345.63 33.23
  Q 345.54 53.38 345.60 76.73
  Q 345.60 77.09 345.72 77.43
  Z"
/>
<path fill="#2d5489" d="
  M 77.90 37.25
  L 77.87 98.24
  A 0.30 0.29 90.0 0 1 77.58 98.54
  L 65.41 98.53
  Q 64.78 98.53 64.78 97.91
  L 64.80 39.57
  Q 64.80 39.12 65.15 38.84
  C 68.71 36.05 73.22 36.56 77.41 36.75
  Q 77.90 36.77 77.90 37.25
  Z"
/>
<path fill="#3f2e5b" d="
  M 192.92 50.94
  Q 193.05 52.26 193.83 51.18
  Q 200.20 42.29 210.69 44.03
  C 219.63 45.52 223.72 53.51 223.72 61.90
  Q 223.72 75.44 223.74 87.18
  A 0.52 0.52 0.0 0 1 223.22 87.70
  L 211.48 87.71
  Q 210.88 87.71 210.88 87.12
  Q 210.96 75.33 210.86 63.15
  C 210.81 57.96 207.42 54.30 202.19 54.28
  C 195.72 54.25 192.95 58.58 192.91 64.58
  Q 192.84 76.50 192.93 87.26
  A 0.44 0.43 -1.3 0 1 192.50 87.70
  L 180.53 87.71
  Q 179.96 87.71 179.96 87.15
  L 179.97 44.70
  Q 179.97 44.12 180.55 44.12
  L 192.46 44.13
  A 0.51 0.51 0.0 0 1 192.97 44.69
  Q 192.64 48.11 192.92 50.94
  Z"
/>
<path fill="#3f2e5b" d="
  M 325.24 67.90
  A 20.02 20.02 0.0 0 1 305.22 87.92
  L 300.84 87.92
  A 20.02 20.02 0.0 0 1 280.82 67.90
  L 280.82 63.96
  A 20.02 20.02 0.0 0 1 300.84 43.94
  L 305.22 43.94
  A 20.02 20.02 0.0 0 1 325.24 63.96
  L 325.24 67.90
  Z
  M 303.0100 77.1500
  A 11.28 9.61 90.0 0 0 312.6200 65.8700
  A 11.28 9.61 90.0 0 0 303.0100 54.5900
  A 11.28 9.61 90.0 0 0 293.4000 65.8700
  A 11.28 9.61 90.0 0 0 303.0100 77.1500
  Z"
/>
<path fill="#3f2e5b" d="
  M 380.93 68.78
  C 381.03 72.08 382.19 75.54 385.41 77.02
  C 389.56 78.94 395.57 78.00 397.12 73.10
  A 0.87 0.85 8.8 0 1 397.94 72.51
  L 410.49 72.50
  Q 411.10 72.50 410.93 73.09
  Q 408.45 81.71 401.17 85.44
  C 388.10 92.13 371.90 86.25 368.89 71.41
  Q 368.27 68.36 368.50 63.92
  C 368.92 55.91 372.97 48.92 380.34 45.70
  C 386.61 42.97 394.77 42.93 400.78 46.02
  Q 412.67 52.14 411.59 67.17
  Q 411.52 68.16 410.53 68.16
  L 381.56 68.13
  Q 380.91 68.13 380.93 68.78
  Z
  M 381.70 62.99
  L 398.36 62.93
  A 0.53 0.53 0.0 0 0 398.88 62.40
  L 398.88 62.19
  A 8.24 8.11 89.8 0 0 390.74 53.98
  L 389.24 53.98
  A 8.24 8.11 89.8 0 0 381.16 62.25
  L 381.16 62.46
  A 0.53 0.53 0.0 0 0 381.70 62.99
  Z"
/>
<path fill="#3f2e5b" d="
  M 450.08 50.58
  Q 450.29 47.87 449.92 45.01
  A 0.78 0.78 0.0 0 1 450.69 44.13
  L 462.47 44.10
  A 0.37 0.37 0.0 0 1 462.84 44.47
  L 462.84 87.18
  Q 462.84 87.71 462.31 87.71
  L 450.56 87.70
  A 0.62 0.62 0.0 0 1 449.94 87.06
  L 450.13 81.74
  Q 450.23 78.76 448.62 81.26
  Q 443.84 88.71 434.50 88.07
  C 411.28 86.49 411.15 45.91 433.89 43.80
  Q 443.86 42.88 448.89 50.87
  Q 449.93 52.52 450.08 50.58
  Z
  M 449.8431 63.9059
  A 8.95 8.95 0.0 0 0 440.8619 54.9872
  L 439.2220 54.9929
  A 8.95 8.95 0.0 0 0 430.3033 63.9741
  L 430.3169 67.8741
  A 8.95 8.95 0.0 0 0 439.2981 76.7928
  L 440.9380 76.7871
  A 8.95 8.95 0.0 0 0 449.8567 67.8059
  L 449.8431 63.9059
  Z"
/>
<path fill="#3f2e5b" d="
  M 252.72 74.29
  Q 253.28 74.33 253.38 74.00
  Q 257.73 59.82 262.50 44.46
  A 0.47 0.47 0.0 0 1 262.95 44.12
  L 275.80 44.10
  Q 276.20 44.10 276.07 44.49
  L 260.96 87.03
  A 1.02 1.02 0.0 0 1 260.00 87.71
  L 245.20 87.71
  Q 244.65 87.70 244.47 87.18
  L 229.31 44.47
  A 0.27 0.26 80.7 0 1 229.56 44.11
  L 242.17 44.12
  Q 242.77 44.12 242.95 44.70
  L 252.11 73.81
  A 0.71 0.69 -6.1 0 0 252.72 74.29
  Z"
/>
<path fill="#58a4c1" d="
  M 94.84 128.68
  A 0.42 0.42 0.0 0 0 95.26 129.10
  L 112.71 129.20
  A 0.71 0.71 0.0 0 1 113.35 129.63
  C 115.10 133.79 116.49 144.35 108.98 144.20
  Q 99.51 144.02 90.02 144.27
  C 83.82 144.43 81.45 139.28 81.47 133.92
  Q 81.55 105.05 81.45 78.27
  Q 81.45 77.70 82.00 77.53
  C 87.97 75.76 94.69 75.97 94.72 84.00
  Q 94.81 106.56 94.84 128.68
  Z"
/>
</svg>
